<svg xmlns="http://www.w3.org/2000/svg" width="28" height="28" viewBox="0 0 28 28">
    <g>
        <path d="M18.014 7.842a4.915 4.915 0 0 0 .337-4.885 5.205 5.205 0 0 0-5.05-2.944 4.925 4.925 0 0 0-4.086 2.7 7.155 7.155 0 0 0-.675 2.854c-.092 2 .51 4.248-.55 6.067-1.062 1.819-3.313 2.4-5.01 3.469a7.152 7.152 0 0 0-2.147 1.98 4.919 4.919 0 0 0-.337 4.887 5.205 5.205 0 0 0 5.052 2.942A4.92 4.92 0 0 0 9.635 22.2a7.147 7.147 0 0 0 .675-2.829c.092-2-.51-4.246.55-6.065 1.062-1.821 3.313-2.4 5.01-3.471a7.152 7.152 0 0 0 2.144-1.993z" fill="#00d2e6" />
        <ellipse cx="5.104" cy="5.106" rx="5.104" ry="5.106" transform="translate(17.013 14.785)" fill="#00d2e6" />
    </g>
</svg>